<svg xmlns="http://www.w3.org/2000/svg" width="252" height="291" viewBox="0 0 252 291"><path d="M126 0l126 72.8v145.5L126 291 0 218.3V72.8L126 0z"/><path fill="#fff" d="M52.9 199.3a2.4 2.4 0 1 1 0-4.8h11.9v-15.1H52.9a2.2 2.2 0 0 1-2.4-2.4v-47a2.2 2.2 0 0 1 2.4-2.4h15.7C69.8 93.6 95.2 75 126 75s56.1 18.6 57.3 52.6h15.8a2.3 2.3 0 0 1 2.4 2.4v47a2.3 2.3 0 0 1-2.4 2.4h-11.9v15.1h11.9a2.4 2.4 0 0 1 0 4.8zm2.4-66.9v42.2h141.4v-42.2zm14.3 47v15.1h15.3v-15.1zm3.8-51.8h105.2C177.4 96.7 154 79.8 126 79.8s-51.4 16.9-52.6 47.8zm16.3 51.8v15.1h23.9v-15.1zm28.7 0v15.1h15.2v-15.1zm64.7-16.2h-58.3a2.4 2.4 0 0 1 0-4.8h58.3a2.4 2.4 0 1 1 0 4.8zm-44.7 16.2v15.1h23.9v-15.1zm28.7 0v15.1h15.3v-15.1z"/></svg>