<svg xmlns="http://www.w3.org/2000/svg" width="252" height="291" viewBox="0 0 252 291"><path d="M126 0l126 72.8v145.5L126 291 0 218.3V72.8L126 0z"/><path fill="#fff" d="M54.8 204.5l-5.5-7.9a2.4 2.4 0 0 1 .2-2.8l19.9-23.5h-9.8a2.2 2.2 0 0 1-2.4-2.3v-17.2a2.2 2.2 0 0 1 2.4-2.4h13.8a70.2 70.2 0 0 1-2.6-18.2 56.7 56.7 0 0 1 56.6-56.4c30.9 0 56.4 25.6 56.4 56.4a59.4 59.4 0 0 1-2.6 18.2h13.9a2.2 2.2 0 0 1 2.3 2.4V168a2.2 2.2 0 0 1-2.3 2.3h-12.2l19.6 23.5a2.6 2.6 0 0 1 0 2.8l-5.5 7.9a2.5 2.5 0 0 1-3.1.7l-11.5-5.9h-113l-11.5 5.9a2.5 2.5 0 0 1-3.1-.7zm36.3-34.2H75.3l-21 24.9 3.4 4.8L98 178.7zM62 153.1v12.5h130.7v-12.5zm16.4-4.7h97.8a58.7 58.7 0 0 0 2.8-18.2 51.7 51.7 0 0 0-51.6-51.6c-28.4 0-51.8 23.2-51.8 51.6 0 6.2.5 12.7 2.8 18.2zm23 34.1l-22.7 12h32.5zm-4.1-12.2l20.1 24.2h17.2l20.1-24.2zm53.3 12.2l-9.8 12h32.5zm26.1-12.2h-15.8l-7.2 8.4 40.6 21.3 3.4-4.6z"/></svg>