<svg xmlns="http://www.w3.org/2000/svg" width="252" height="291" viewBox="0 0 252 291"><path d="M126 0l126 72.8v145.5L126 291 0 218.3V72.8L126 0z"/><path fill="#fff" d="M56.9 199.3a2.2 2.2 0 0 1-2.3-2.4V168H23a2.4 2.4 0 1 1 0-4.8h17.9v-15.6a2.2 2.2 0 0 1 2.4-2.3h9.3a75.7 75.7 0 0 1 73.2-58.1c.2-.3.4-.3.9 0 35.4.2 64.8 25.1 72.7 58.1h9.3a2.2 2.2 0 0 1 2.4 2.3v15.6H229a2.4 2.4 0 0 1 0 4.8h-31.6v28.9a2.2 2.2 0 0 1-2.3 2.4zM45.7 150v13.2h160.6V150zm75.5-57.8c-30.6 1.9-56.1 24.1-63.5 53.1h25.5zM59.3 168v26.5h64.3V168zm64.3-71l-34.4 48.3h34.4zm4.8-5v53.3h65.9A70.9 70.9 0 0 0 128.4 92zm0 76v26.5h10.7V168zm15.5 0v26.5h48.8V168z"/></svg>